<svg width="478" height="163" viewBox="0 0 478 163" fill="none" xmlns="http://www.w3.org/2000/svg">
<path d="M98.05 63.3656H88.1176H81.1652H74.003L94.3907 99.4464L75.5713 131.596L57.0133 99.4464L61.9795 89.7753L75.5713 111.993L82.89 98.6623L55.1836 54.2275H93.8679L98.05 63.3656Z" fill="#1E7BBF"/>
<path d="M28 54.0859L39.5008 54.0859L57.7974 84.5775L52.3084 93.9872L28 54.0859Z" fill="#48BED9"/>
<path d="M121.202 54.0859L109.702 54.0859L91.405 84.5775L96.894 93.9872L121.202 54.0859Z" fill="#48BED9"/>
<path d="M137.942 46.3235V119.083L74.9287 155.464L11.916 119.083V46.3235L74.9287 9.94263L137.942 46.3235Z" stroke="url(#paint0_linear_2485_86)" stroke-width="3.75499"/>
<circle cx="11.6027" cy="119.226" r="6.99793" fill="url(#paint1_linear_2485_86)"/>
<circle cx="137.565" cy="119.226" r="6.99793" fill="url(#paint2_linear_2485_86)"/>
<circle cx="11.6027" cy="46.5206" r="6.99793" fill="url(#paint3_linear_2485_86)"/>
<circle cx="137.565" cy="46.5206" r="6.99793" fill="url(#paint4_linear_2485_86)"/>
<circle cx="75.0956" cy="155.415" r="6.99793" fill="url(#paint5_linear_2485_86)"/>
<circle cx="75.0956" cy="9.99793" r="6.99793" fill="url(#paint6_linear_2485_86)"/>
<path d="M195.04 67.04L212.05 26H226.99L195.04 92.69L163.09 26H177.94L195.04 67.04ZM239.314 67.85C240.634 70.19 242.074 72.23 243.634 73.97C245.254 75.71 247.024 77.06 248.944 78.02C250.864 78.98 252.934 79.46 255.154 79.46C257.734 79.46 259.834 78.8 261.454 77.48C263.074 76.16 263.884 74.36 263.884 72.08C263.884 70.1 263.374 68.51 262.354 67.31C261.394 66.11 259.924 65.06 257.944 64.16C256.024 63.2 253.654 62.18 250.834 61.1C249.334 60.56 247.594 59.84 245.614 58.94C243.694 57.98 241.864 56.78 240.124 55.34C238.384 53.84 236.944 52.04 235.804 49.94C234.664 47.78 234.094 45.2 234.094 42.2C234.094 38.6 234.994 35.51 236.794 32.93C238.654 30.29 241.144 28.28 244.264 26.9C247.444 25.46 250.984 24.74 254.884 24.74C258.904 24.74 262.354 25.43 265.234 26.81C268.174 28.13 270.604 29.84 272.524 31.94C274.504 33.98 276.034 36.11 277.114 38.33L267.034 43.91C266.194 42.41 265.174 41.06 263.974 39.86C262.834 38.6 261.514 37.61 260.014 36.89C258.514 36.11 256.804 35.72 254.884 35.72C252.364 35.72 250.474 36.32 249.214 37.52C247.954 38.66 247.324 40.01 247.324 41.57C247.324 43.13 247.834 44.51 248.854 45.71C249.874 46.85 251.434 47.96 253.534 49.04C255.634 50.06 258.274 51.11 261.454 52.19C263.494 52.91 265.444 53.81 267.304 54.89C269.224 55.97 270.934 57.29 272.434 58.85C273.994 60.35 275.194 62.15 276.034 64.25C276.934 66.29 277.384 68.66 277.384 71.36C277.384 74.42 276.784 77.15 275.584 79.55C274.384 81.95 272.734 83.99 270.634 85.67C268.534 87.29 266.164 88.52 263.524 89.36C260.944 90.26 258.214 90.71 255.334 90.71C251.494 90.71 247.894 89.99 244.534 88.55C241.234 87.05 238.354 85.04 235.894 82.52C233.434 80 231.514 77.27 230.134 74.33L239.314 67.85ZM326.217 47.6L299.217 108.8H287.247L297.687 84.86L280.497 47.6H293.457L306.777 80.54L301.017 80.36L314.067 47.6H326.217ZM358.176 63.8C358.176 61.04 357.636 58.94 356.556 57.5C355.476 56.06 353.736 55.34 351.336 55.34C349.716 55.34 348.276 55.7 347.016 56.42C345.756 57.08 344.796 58.04 344.136 59.3C343.476 60.56 343.146 62.06 343.146 63.8V89H331.446V47.6H343.146V53.9C344.406 51.56 346.056 49.79 348.096 48.59C350.196 47.33 352.716 46.7 355.656 46.7C360.576 46.7 364.236 48.11 366.636 50.93C369.036 53.69 370.236 57.56 370.236 62.54V89H358.176V63.8ZM389.999 76.13C389.999 77.33 390.299 78.38 390.899 79.28C391.499 80.12 392.309 80.78 393.329 81.26C394.409 81.68 395.579 81.89 396.839 81.89C398.639 81.89 400.259 81.53 401.699 80.81C403.139 80.03 404.309 78.95 405.209 77.57C406.109 76.13 406.559 74.42 406.559 72.44L407.999 77.84C407.999 80.48 407.249 82.7 405.749 84.5C404.309 86.3 402.419 87.65 400.079 88.55C397.799 89.45 395.399 89.9 392.879 89.9C390.299 89.9 387.899 89.39 385.679 88.37C383.459 87.35 381.659 85.88 380.279 83.96C378.959 81.98 378.299 79.58 378.299 76.76C378.299 72.74 379.709 69.56 382.529 67.22C385.349 64.88 389.339 63.71 394.499 63.71C397.139 63.71 399.449 63.98 401.429 64.52C403.469 65.06 405.179 65.72 406.559 66.5C407.939 67.28 408.929 68.03 409.529 68.75V74.15C407.909 72.95 406.079 72.05 404.039 71.45C402.059 70.85 399.959 70.55 397.739 70.55C395.939 70.55 394.469 70.79 393.329 71.27C392.189 71.69 391.349 72.32 390.809 73.16C390.269 73.94 389.999 74.93 389.999 76.13ZM385.499 59.3L381.179 51.38C383.339 50.24 385.979 49.16 389.099 48.14C392.219 47.06 395.699 46.52 399.539 46.52C403.079 46.52 406.229 47.03 408.989 48.05C411.749 49.07 413.909 50.57 415.469 52.55C417.029 54.47 417.809 56.84 417.809 59.66V89H406.559V62.09C406.559 60.95 406.379 59.99 406.019 59.21C405.659 58.37 405.089 57.68 404.309 57.14C403.589 56.6 402.719 56.21 401.699 55.97C400.679 55.73 399.539 55.61 398.279 55.61C396.359 55.61 394.529 55.82 392.789 56.24C391.049 56.66 389.549 57.17 388.289 57.77C387.029 58.37 386.099 58.88 385.499 59.3ZM440.083 108.8H428.383V47.6H440.083V108.8ZM474.103 68.3C474.103 72.98 473.173 76.97 471.313 80.27C469.453 83.57 466.993 86.06 463.933 87.74C460.933 89.42 457.693 90.26 454.213 90.26C450.673 90.26 447.583 89.36 444.943 87.56C442.363 85.76 440.353 83.21 438.913 79.91C437.533 76.61 436.843 72.74 436.843 68.3C436.843 63.8 437.533 59.93 438.913 56.69C440.353 53.39 442.363 50.84 444.943 49.04C447.583 47.24 450.673 46.34 454.213 46.34C457.693 46.34 460.933 47.18 463.933 48.86C466.993 50.54 469.453 53.03 471.313 56.33C473.173 59.57 474.103 63.56 474.103 68.3ZM462.043 68.3C462.043 65.84 461.533 63.74 460.513 62C459.493 60.26 458.113 58.94 456.373 58.04C454.693 57.14 452.833 56.69 450.793 56.69C449.053 56.69 447.343 57.14 445.663 58.04C444.043 58.88 442.693 60.17 441.613 61.91C440.593 63.65 440.083 65.78 440.083 68.3C440.083 70.82 440.593 72.95 441.613 74.69C442.693 76.43 444.043 77.75 445.663 78.65C447.343 79.49 449.053 79.91 450.793 79.91C452.833 79.91 454.693 79.46 456.373 78.56C458.113 77.66 459.493 76.34 460.513 74.6C461.533 72.86 462.043 70.76 462.043 68.3Z" fill="#1E7BBF"/>
<path d="M163.18 124.87V121H178.78V124.87H173.11V142H168.82V124.87H163.18ZM196.079 142.3C194.579 142.3 193.269 142 192.149 141.4C191.029 140.8 190.159 139.97 189.539 138.91C188.939 137.83 188.639 136.56 188.639 135.1C188.639 133.62 188.939 132.35 189.539 131.29C190.159 130.21 191.029 129.38 192.149 128.8C193.269 128.2 194.589 127.9 196.109 127.9C197.629 127.9 198.919 128.18 199.979 128.74C201.059 129.28 201.879 130.08 202.439 131.14C202.999 132.18 203.279 133.44 203.279 134.92C203.279 135.1 203.269 135.29 203.249 135.49C203.249 135.69 203.239 135.85 203.219 135.97H190.859V133.57H199.829L198.779 134.95C198.859 134.83 198.929 134.67 198.989 134.47C199.069 134.25 199.109 134.07 199.109 133.93C199.109 133.25 198.979 132.67 198.719 132.19C198.479 131.71 198.129 131.33 197.669 131.05C197.209 130.77 196.669 130.63 196.049 130.63C195.289 130.63 194.649 130.8 194.129 131.14C193.629 131.46 193.239 131.95 192.959 132.61C192.699 133.25 192.559 134.05 192.539 135.01C192.539 135.93 192.669 136.71 192.929 137.35C193.209 137.99 193.619 138.48 194.159 138.82C194.699 139.16 195.349 139.33 196.109 139.33C196.969 139.33 197.699 139.17 198.299 138.85C198.919 138.51 199.429 138.01 199.829 137.35L203.219 138.4C202.499 139.7 201.539 140.68 200.339 141.34C199.159 141.98 197.739 142.3 196.079 142.3ZM220.85 135.1C220.85 135.9 221.03 136.6 221.39 137.2C221.75 137.8 222.23 138.27 222.83 138.61C223.45 138.95 224.13 139.12 224.87 139.12C225.47 139.12 226.05 139.03 226.61 138.85C227.17 138.65 227.67 138.39 228.11 138.07C228.57 137.73 228.92 137.34 229.16 136.9V140.89C228.68 141.33 228.05 141.68 227.27 141.94C226.51 142.18 225.62 142.3 224.6 142.3C223.14 142.3 221.82 142 220.64 141.4C219.48 140.8 218.56 139.96 217.88 138.88C217.22 137.78 216.89 136.52 216.89 135.1C216.89 133.66 217.22 132.4 217.88 131.32C218.56 130.24 219.48 129.4 220.64 128.8C221.82 128.2 223.14 127.9 224.6 127.9C225.62 127.9 226.51 128.03 227.27 128.29C228.05 128.53 228.68 128.86 229.16 129.28V133.27C228.92 132.83 228.56 132.45 228.08 132.13C227.62 131.79 227.11 131.53 226.55 131.35C225.99 131.17 225.43 131.08 224.87 131.08C224.13 131.08 223.45 131.26 222.83 131.62C222.23 131.96 221.75 132.43 221.39 133.03C221.03 133.63 220.85 134.32 220.85 135.1ZM248.188 118.6V142H244.288V118.6H248.188ZM253.198 133.6C253.198 132.68 253.018 131.98 252.658 131.5C252.318 131.02 251.738 130.78 250.918 130.78C250.378 130.78 249.898 130.9 249.478 131.14C249.058 131.36 248.738 131.68 248.518 132.1C248.298 132.52 248.188 133.02 248.188 133.6H247.408C247.408 132.5 247.588 131.51 247.948 130.63C248.328 129.75 248.888 129.05 249.628 128.53C250.368 128.01 251.278 127.75 252.358 127.75C253.438 127.75 254.328 127.95 255.028 128.35C255.728 128.75 256.248 129.35 256.588 130.15C256.928 130.93 257.098 131.89 257.098 133.03V142H253.198V133.6ZM281.538 133.6C281.538 132.68 281.358 131.98 280.998 131.5C280.638 131.02 280.058 130.78 279.258 130.78C278.718 130.78 278.238 130.9 277.818 131.14C277.398 131.36 277.078 131.68 276.858 132.1C276.638 132.52 276.528 133.02 276.528 133.6V142H272.628V128.2H276.528V130.3C276.948 129.52 277.498 128.93 278.178 128.53C278.878 128.11 279.718 127.9 280.698 127.9C282.338 127.9 283.558 128.37 284.358 129.31C285.158 130.23 285.558 131.52 285.558 133.18V142H281.538V133.6ZM300.156 135.1C300.156 133.66 300.486 132.4 301.146 131.32C301.826 130.24 302.736 129.4 303.876 128.8C305.036 128.2 306.346 127.9 307.806 127.9C309.266 127.9 310.566 128.2 311.706 128.8C312.866 129.4 313.776 130.24 314.436 131.32C315.116 132.4 315.456 133.66 315.456 135.1C315.456 136.52 315.116 137.78 314.436 138.88C313.776 139.96 312.866 140.8 311.706 141.4C310.566 142 309.266 142.3 307.806 142.3C306.346 142.3 305.036 142 303.876 141.4C302.736 140.8 301.826 139.96 301.146 138.88C300.486 137.78 300.156 136.52 300.156 135.1ZM304.116 135.1C304.116 135.88 304.276 136.57 304.596 137.17C304.936 137.75 305.386 138.21 305.946 138.55C306.506 138.87 307.126 139.03 307.806 139.03C308.486 139.03 309.106 138.87 309.666 138.55C310.226 138.21 310.666 137.75 310.986 137.17C311.326 136.57 311.496 135.88 311.496 135.1C311.496 134.32 311.326 133.63 310.986 133.03C310.666 132.43 310.226 131.97 309.666 131.65C309.106 131.33 308.486 131.17 307.806 131.17C307.126 131.17 306.506 131.33 305.946 131.65C305.386 131.97 304.936 132.43 304.596 133.03C304.276 133.63 304.116 134.32 304.116 135.1ZM330.071 118.6H333.971V142H330.071V118.6ZM348.576 135.1C348.576 133.66 348.906 132.4 349.566 131.32C350.246 130.24 351.156 129.4 352.296 128.8C353.456 128.2 354.766 127.9 356.226 127.9C357.686 127.9 358.986 128.2 360.126 128.8C361.286 129.4 362.196 130.24 362.856 131.32C363.536 132.4 363.876 133.66 363.876 135.1C363.876 136.52 363.536 137.78 362.856 138.88C362.196 139.96 361.286 140.8 360.126 141.4C358.986 142 357.686 142.3 356.226 142.3C354.766 142.3 353.456 142 352.296 141.4C351.156 140.8 350.246 139.96 349.566 138.88C348.906 137.78 348.576 136.52 348.576 135.1ZM352.536 135.1C352.536 135.88 352.696 136.57 353.016 137.17C353.356 137.75 353.806 138.21 354.366 138.55C354.926 138.87 355.546 139.03 356.226 139.03C356.906 139.03 357.526 138.87 358.086 138.55C358.646 138.21 359.086 137.75 359.406 137.17C359.746 136.57 359.916 135.88 359.916 135.1C359.916 134.32 359.746 133.63 359.406 133.03C359.086 132.43 358.646 131.97 358.086 131.65C357.526 131.33 356.906 131.17 356.226 131.17C355.546 131.17 354.926 131.33 354.366 131.65C353.806 131.97 353.356 132.43 353.016 133.03C352.696 133.63 352.536 134.32 352.536 135.1ZM377.831 142.96H381.641C381.661 143.56 381.821 144.07 382.121 144.49C382.421 144.93 382.831 145.27 383.351 145.51C383.871 145.75 384.481 145.87 385.181 145.87C385.821 145.87 386.421 145.72 386.981 145.42C387.561 145.12 388.021 144.66 388.361 144.04C388.721 143.42 388.901 142.64 388.901 141.7V128.2H392.651V141.7C392.651 143.4 392.311 144.8 391.631 145.9C390.971 147 390.081 147.8 388.961 148.3C387.841 148.82 386.621 149.08 385.301 149.08C383.701 149.08 382.361 148.82 381.281 148.3C380.201 147.8 379.371 147.08 378.791 146.14C378.231 145.22 377.911 144.16 377.831 142.96ZM377.561 134.98C377.561 133.44 377.871 132.15 378.491 131.11C379.111 130.05 379.931 129.25 380.951 128.71C381.971 128.17 383.051 127.9 384.191 127.9C385.351 127.9 386.371 128.18 387.251 128.74C388.151 129.3 388.851 130.11 389.351 131.17C389.871 132.21 390.131 133.48 390.131 134.98C390.131 136.46 389.871 137.73 389.351 138.79C388.851 139.85 388.151 140.66 387.251 141.22C386.371 141.76 385.351 142.03 384.191 142.03C383.051 142.03 381.971 141.76 380.951 141.22C379.931 140.68 379.111 139.89 378.491 138.85C377.871 137.79 377.561 136.5 377.561 134.98ZM381.581 134.98C381.581 135.8 381.751 136.5 382.091 137.08C382.431 137.64 382.891 138.07 383.471 138.37C384.051 138.67 384.671 138.82 385.331 138.82C385.911 138.82 386.471 138.68 387.011 138.4C387.571 138.1 388.021 137.67 388.361 137.11C388.721 136.53 388.901 135.82 388.901 134.98C388.901 134.34 388.801 133.78 388.601 133.3C388.401 132.82 388.121 132.42 387.761 132.1C387.421 131.78 387.041 131.54 386.621 131.38C386.201 131.2 385.771 131.11 385.331 131.11C384.671 131.11 384.051 131.26 383.471 131.56C382.891 131.86 382.431 132.3 382.091 132.88C381.751 133.44 381.581 134.14 381.581 134.98ZM407.94 122.86C407.94 122.22 408.17 121.7 408.63 121.3C409.09 120.88 409.64 120.67 410.28 120.67C410.92 120.67 411.46 120.88 411.9 121.3C412.36 121.7 412.59 122.22 412.59 122.86C412.59 123.48 412.36 124 411.9 124.42C411.46 124.84 410.92 125.05 410.28 125.05C409.64 125.05 409.09 124.84 408.63 124.42C408.17 124 407.94 123.48 407.94 122.86ZM408.36 128.2H412.14V142H408.36V128.2ZM434.475 142.3C432.975 142.3 431.665 142 430.545 141.4C429.425 140.8 428.555 139.97 427.935 138.91C427.335 137.83 427.035 136.56 427.035 135.1C427.035 133.62 427.335 132.35 427.935 131.29C428.555 130.21 429.425 129.38 430.545 128.8C431.665 128.2 432.985 127.9 434.505 127.9C436.025 127.9 437.315 128.18 438.375 128.74C439.455 129.28 440.275 130.08 440.835 131.14C441.395 132.18 441.675 133.44 441.675 134.92C441.675 135.1 441.665 135.29 441.645 135.49C441.645 135.69 441.635 135.85 441.615 135.97H429.255V133.57H438.225L437.175 134.95C437.255 134.83 437.325 134.67 437.385 134.47C437.465 134.25 437.505 134.07 437.505 133.93C437.505 133.25 437.375 132.67 437.115 132.19C436.875 131.71 436.525 131.33 436.065 131.05C435.605 130.77 435.065 130.63 434.445 130.63C433.685 130.63 433.045 130.8 432.525 131.14C432.025 131.46 431.635 131.95 431.355 132.61C431.095 133.25 430.955 134.05 430.935 135.01C430.935 135.93 431.065 136.71 431.325 137.35C431.605 137.99 432.015 138.48 432.555 138.82C433.095 139.16 433.745 139.33 434.505 139.33C435.365 139.33 436.095 139.17 436.695 138.85C437.315 138.51 437.825 138.01 438.225 137.35L441.615 138.4C440.895 139.7 439.935 140.68 438.735 141.34C437.555 141.98 436.135 142.3 434.475 142.3ZM456.996 137.23C457.576 137.77 458.116 138.21 458.616 138.55C459.116 138.87 459.586 139.11 460.026 139.27C460.486 139.43 460.916 139.51 461.316 139.51C461.836 139.51 462.236 139.4 462.516 139.18C462.796 138.94 462.936 138.62 462.936 138.22C462.936 137.86 462.816 137.56 462.576 137.32C462.356 137.06 462.026 136.83 461.586 136.63C461.146 136.43 460.586 136.22 459.906 136C459.266 135.76 458.646 135.48 458.046 135.16C457.446 134.82 456.946 134.38 456.546 133.84C456.166 133.28 455.976 132.57 455.976 131.71C455.976 130.89 456.196 130.2 456.636 129.64C457.076 129.06 457.666 128.63 458.406 128.35C459.166 128.05 460.006 127.9 460.926 127.9C461.706 127.9 462.436 128 463.116 128.2C463.796 128.4 464.426 128.67 465.006 129.01C465.586 129.33 466.096 129.71 466.536 130.15L464.826 132.55C464.326 132.01 463.726 131.57 463.026 131.23C462.346 130.89 461.676 130.72 461.016 130.72C460.576 130.72 460.226 130.81 459.966 130.99C459.726 131.15 459.606 131.4 459.606 131.74C459.606 132.04 459.726 132.31 459.966 132.55C460.226 132.77 460.586 132.97 461.046 133.15C461.526 133.33 462.066 133.55 462.666 133.81C463.406 134.09 464.086 134.41 464.706 134.77C465.346 135.11 465.856 135.54 466.236 136.06C466.616 136.58 466.806 137.26 466.806 138.1C466.806 139.48 466.356 140.56 465.456 141.34C464.556 142.1 463.316 142.48 461.736 142.48C460.756 142.48 459.856 142.35 459.036 142.09C458.236 141.83 457.506 141.49 456.846 141.07C456.206 140.63 455.626 140.16 455.106 139.66L456.996 137.23Z" fill="#6C6E71"/>
<defs>
<linearGradient id="paint0_linear_2485_86" x1="74.929" y1="7.77466" x2="74.929" y2="157.633" gradientUnits="userSpaceOnUse">
<stop stop-color="#47BDD9"/>
<stop offset="1" stop-color="#1C77BE"/>
</linearGradient>
<linearGradient id="paint1_linear_2485_86" x1="11.6027" y1="112.228" x2="11.6027" y2="126.224" gradientUnits="userSpaceOnUse">
<stop stop-color="#48BED9"/>
<stop offset="1" stop-color="#1E7BBF"/>
</linearGradient>
<linearGradient id="paint2_linear_2485_86" x1="137.565" y1="112.228" x2="137.565" y2="126.224" gradientUnits="userSpaceOnUse">
<stop stop-color="#48BED9"/>
<stop offset="1" stop-color="#1E7BBF"/>
</linearGradient>
<linearGradient id="paint3_linear_2485_86" x1="11.6027" y1="39.5227" x2="11.6027" y2="53.5186" gradientUnits="userSpaceOnUse">
<stop stop-color="#48BED9"/>
<stop offset="1" stop-color="#1E7BBF"/>
</linearGradient>
<linearGradient id="paint4_linear_2485_86" x1="137.565" y1="39.5227" x2="137.565" y2="53.5186" gradientUnits="userSpaceOnUse">
<stop stop-color="#48BED9"/>
<stop offset="1" stop-color="#1E7BBF"/>
</linearGradient>
<linearGradient id="paint5_linear_2485_86" x1="75.0956" y1="148.417" x2="75.0956" y2="162.413" gradientUnits="userSpaceOnUse">
<stop stop-color="#48BED9"/>
<stop offset="1" stop-color="#1E7BBF"/>
</linearGradient>
<linearGradient id="paint6_linear_2485_86" x1="75.0956" y1="3" x2="75.0956" y2="16.9959" gradientUnits="userSpaceOnUse">
<stop stop-color="#48BED9"/>
<stop offset="1" stop-color="#1E7BBF"/>
</linearGradient>
</defs>
</svg>
