<svg width="529" height="191" viewBox="0 0 529 191" fill="none" xmlns="http://www.w3.org/2000/svg">
<path d="M164.767 51.748V138.657L89.5 182.113L14.2334 138.657V51.748L89.5 8.29199L164.767 51.748Z" stroke="url(#paint0_linear_5330_3319)" stroke-width="4.48519"/>
<path d="M102.846 91.8506L96.1724 80.8594L102.061 70.2607H76.9377L108.734 125.217L89.4991 158.191L70.2645 124.824L76.9377 113.441L89.4991 135.03L94.9947 124.824L56.918 58.4844H122.473L102.846 91.8506Z" fill="#1E7BBF"/>
<path d="M45.5339 58.0938H31.4023L63.5909 113.835L70.2642 102.451L45.5339 58.0938Z" fill="#48BED9"/>
<path d="M133.072 58.0938H147.203L115.015 113.835L108.341 102.451L133.072 58.0938Z" fill="#48BED9"/>
<circle cx="13.8627" cy="138.828" r="8.35877" fill="url(#paint1_linear_5330_3319)"/>
<circle cx="164.32" cy="138.828" r="8.35877" fill="url(#paint2_linear_5330_3319)"/>
<circle cx="13.8627" cy="51.9838" r="8.35877" fill="url(#paint3_linear_5330_3319)"/>
<circle cx="164.32" cy="51.9838" r="8.35877" fill="url(#paint4_linear_5330_3319)"/>
<circle cx="89.7025" cy="182.054" r="8.35877" fill="url(#paint5_linear_5330_3319)"/>
<circle cx="89.7025" cy="8.35877" r="8.35877" fill="url(#paint6_linear_5330_3319)"/>
<path d="M246.04 87.04L263.05 46H277.99L246.04 112.69L214.09 46H228.94L246.04 87.04ZM290.314 87.85C291.634 90.19 293.074 92.23 294.634 93.97C296.254 95.71 298.024 97.06 299.944 98.02C301.864 98.98 303.934 99.46 306.154 99.46C308.734 99.46 310.834 98.8 312.454 97.48C314.074 96.16 314.884 94.36 314.884 92.08C314.884 90.1 314.374 88.51 313.354 87.31C312.394 86.11 310.924 85.06 308.944 84.16C307.024 83.2 304.654 82.18 301.834 81.1C300.334 80.56 298.594 79.84 296.614 78.94C294.694 77.98 292.864 76.78 291.124 75.34C289.384 73.84 287.944 72.04 286.804 69.94C285.664 67.78 285.094 65.2 285.094 62.2C285.094 58.6 285.994 55.51 287.794 52.93C289.654 50.29 292.144 48.28 295.264 46.9C298.444 45.46 301.984 44.74 305.884 44.74C309.904 44.74 313.354 45.43 316.234 46.81C319.174 48.13 321.604 49.84 323.524 51.94C325.504 53.98 327.034 56.11 328.114 58.33L318.034 63.91C317.194 62.41 316.174 61.06 314.974 59.86C313.834 58.6 312.514 57.61 311.014 56.89C309.514 56.11 307.804 55.72 305.884 55.72C303.364 55.72 301.474 56.32 300.214 57.52C298.954 58.66 298.324 60.01 298.324 61.57C298.324 63.13 298.834 64.51 299.854 65.71C300.874 66.85 302.434 67.96 304.534 69.04C306.634 70.06 309.274 71.11 312.454 72.19C314.494 72.91 316.444 73.81 318.304 74.89C320.224 75.97 321.934 77.29 323.434 78.85C324.994 80.35 326.194 82.15 327.034 84.25C327.934 86.29 328.384 88.66 328.384 91.36C328.384 94.42 327.784 97.15 326.584 99.55C325.384 101.95 323.734 103.99 321.634 105.67C319.534 107.29 317.164 108.52 314.524 109.36C311.944 110.26 309.214 110.71 306.334 110.71C302.494 110.71 298.894 109.99 295.534 108.55C292.234 107.05 289.354 105.04 286.894 102.52C284.434 100 282.514 97.27 281.134 94.33L290.314 87.85ZM377.217 67.6L350.217 128.8H338.247L348.687 104.86L331.497 67.6H344.457L357.777 100.54L352.017 100.36L365.067 67.6H377.217ZM409.176 83.8C409.176 81.04 408.636 78.94 407.556 77.5C406.476 76.06 404.736 75.34 402.336 75.34C400.716 75.34 399.276 75.7 398.016 76.42C396.756 77.08 395.796 78.04 395.136 79.3C394.476 80.56 394.146 82.06 394.146 83.8V109H382.446V67.6H394.146V73.9C395.406 71.56 397.056 69.79 399.096 68.59C401.196 67.33 403.716 66.7 406.656 66.7C411.576 66.7 415.236 68.11 417.636 70.93C420.036 73.69 421.236 77.56 421.236 82.54V109H409.176V83.8ZM440.999 96.13C440.999 97.33 441.299 98.38 441.899 99.28C442.499 100.12 443.309 100.78 444.329 101.26C445.409 101.68 446.579 101.89 447.839 101.89C449.639 101.89 451.259 101.53 452.699 100.81C454.139 100.03 455.309 98.95 456.209 97.57C457.109 96.13 457.559 94.42 457.559 92.44L458.999 97.84C458.999 100.48 458.249 102.7 456.749 104.5C455.309 106.3 453.419 107.65 451.079 108.55C448.799 109.45 446.399 109.9 443.879 109.9C441.299 109.9 438.899 109.39 436.679 108.37C434.459 107.35 432.659 105.88 431.279 103.96C429.959 101.98 429.299 99.58 429.299 96.76C429.299 92.74 430.709 89.56 433.529 87.22C436.349 84.88 440.339 83.71 445.499 83.71C448.139 83.71 450.449 83.98 452.429 84.52C454.469 85.06 456.179 85.72 457.559 86.5C458.939 87.28 459.929 88.03 460.529 88.75V94.15C458.909 92.95 457.079 92.05 455.039 91.45C453.059 90.85 450.959 90.55 448.739 90.55C446.939 90.55 445.469 90.79 444.329 91.27C443.189 91.69 442.349 92.32 441.809 93.16C441.269 93.94 440.999 94.93 440.999 96.13ZM436.499 79.3L432.179 71.38C434.339 70.24 436.979 69.16 440.099 68.14C443.219 67.06 446.699 66.52 450.539 66.52C454.079 66.52 457.229 67.03 459.989 68.05C462.749 69.07 464.909 70.57 466.469 72.55C468.029 74.47 468.809 76.84 468.809 79.66V109H457.559V82.09C457.559 80.95 457.379 79.99 457.019 79.21C456.659 78.37 456.089 77.68 455.309 77.14C454.589 76.6 453.719 76.21 452.699 75.97C451.679 75.73 450.539 75.61 449.279 75.61C447.359 75.61 445.529 75.82 443.789 76.24C442.049 76.66 440.549 77.17 439.289 77.77C438.029 78.37 437.099 78.88 436.499 79.3ZM491.083 128.8H479.383V67.6H491.083V128.8ZM525.103 88.3C525.103 92.98 524.173 96.97 522.313 100.27C520.453 103.57 517.993 106.06 514.933 107.74C511.933 109.42 508.693 110.26 505.213 110.26C501.673 110.26 498.583 109.36 495.943 107.56C493.363 105.76 491.353 103.21 489.913 99.91C488.533 96.61 487.843 92.74 487.843 88.3C487.843 83.8 488.533 79.93 489.913 76.69C491.353 73.39 493.363 70.84 495.943 69.04C498.583 67.24 501.673 66.34 505.213 66.34C508.693 66.34 511.933 67.18 514.933 68.86C517.993 70.54 520.453 73.03 522.313 76.33C524.173 79.57 525.103 83.56 525.103 88.3ZM513.043 88.3C513.043 85.84 512.533 83.74 511.513 82C510.493 80.26 509.113 78.94 507.373 78.04C505.693 77.14 503.833 76.69 501.793 76.69C500.053 76.69 498.343 77.14 496.663 78.04C495.043 78.88 493.693 80.17 492.613 81.91C491.593 83.65 491.083 85.78 491.083 88.3C491.083 90.82 491.593 92.95 492.613 94.69C493.693 96.43 495.043 97.75 496.663 98.65C498.343 99.49 500.053 99.91 501.793 99.91C503.833 99.91 505.693 99.46 507.373 98.56C509.113 97.66 510.493 96.34 511.513 94.6C512.533 92.86 513.043 90.76 513.043 88.3Z" fill="#1E7BBF"/>
<path d="M214.18 144.87V141H229.78V144.87H224.11V162H219.82V144.87H214.18ZM247.079 162.3C245.579 162.3 244.269 162 243.149 161.4C242.029 160.8 241.159 159.97 240.539 158.91C239.939 157.83 239.639 156.56 239.639 155.1C239.639 153.62 239.939 152.35 240.539 151.29C241.159 150.21 242.029 149.38 243.149 148.8C244.269 148.2 245.589 147.9 247.109 147.9C248.629 147.9 249.919 148.18 250.979 148.74C252.059 149.28 252.879 150.08 253.439 151.14C253.999 152.18 254.279 153.44 254.279 154.92C254.279 155.1 254.269 155.29 254.249 155.49C254.249 155.69 254.239 155.85 254.219 155.97H241.859V153.57H250.829L249.779 154.95C249.859 154.83 249.929 154.67 249.989 154.47C250.069 154.25 250.109 154.07 250.109 153.93C250.109 153.25 249.979 152.67 249.719 152.19C249.479 151.71 249.129 151.33 248.669 151.05C248.209 150.77 247.669 150.63 247.049 150.63C246.289 150.63 245.649 150.8 245.129 151.14C244.629 151.46 244.239 151.95 243.959 152.61C243.699 153.25 243.559 154.05 243.539 155.01C243.539 155.93 243.669 156.71 243.929 157.35C244.209 157.99 244.619 158.48 245.159 158.82C245.699 159.16 246.349 159.33 247.109 159.33C247.969 159.33 248.699 159.17 249.299 158.85C249.919 158.51 250.429 158.01 250.829 157.35L254.219 158.4C253.499 159.7 252.539 160.68 251.339 161.34C250.159 161.98 248.739 162.3 247.079 162.3ZM271.85 155.1C271.85 155.9 272.03 156.6 272.39 157.2C272.75 157.8 273.23 158.27 273.83 158.61C274.45 158.95 275.13 159.12 275.87 159.12C276.47 159.12 277.05 159.03 277.61 158.85C278.17 158.65 278.67 158.39 279.11 158.07C279.57 157.73 279.92 157.34 280.16 156.9V160.89C279.68 161.33 279.05 161.68 278.27 161.94C277.51 162.18 276.62 162.3 275.6 162.3C274.14 162.3 272.82 162 271.64 161.4C270.48 160.8 269.56 159.96 268.88 158.88C268.22 157.78 267.89 156.52 267.89 155.1C267.89 153.66 268.22 152.4 268.88 151.32C269.56 150.24 270.48 149.4 271.64 148.8C272.82 148.2 274.14 147.9 275.6 147.9C276.62 147.9 277.51 148.03 278.27 148.29C279.05 148.53 279.68 148.86 280.16 149.28V153.27C279.92 152.83 279.56 152.45 279.08 152.13C278.62 151.79 278.11 151.53 277.55 151.35C276.99 151.17 276.43 151.08 275.87 151.08C275.13 151.08 274.45 151.26 273.83 151.62C273.23 151.96 272.75 152.43 272.39 153.03C272.03 153.63 271.85 154.32 271.85 155.1ZM299.188 138.6V162H295.288V138.6H299.188ZM304.198 153.6C304.198 152.68 304.018 151.98 303.658 151.5C303.318 151.02 302.738 150.78 301.918 150.78C301.378 150.78 300.898 150.9 300.478 151.14C300.058 151.36 299.738 151.68 299.518 152.1C299.298 152.52 299.188 153.02 299.188 153.6H298.408C298.408 152.5 298.588 151.51 298.948 150.63C299.328 149.75 299.888 149.05 300.628 148.53C301.368 148.01 302.278 147.75 303.358 147.75C304.438 147.75 305.328 147.95 306.028 148.35C306.728 148.75 307.248 149.35 307.588 150.15C307.928 150.93 308.098 151.89 308.098 153.03V162H304.198V153.6ZM332.538 153.6C332.538 152.68 332.358 151.98 331.998 151.5C331.638 151.02 331.058 150.78 330.258 150.78C329.718 150.78 329.238 150.9 328.818 151.14C328.398 151.36 328.078 151.68 327.858 152.1C327.638 152.52 327.528 153.02 327.528 153.6V162H323.628V148.2H327.528V150.3C327.948 149.52 328.498 148.93 329.178 148.53C329.878 148.11 330.718 147.9 331.698 147.9C333.338 147.9 334.558 148.37 335.358 149.31C336.158 150.23 336.558 151.52 336.558 153.18V162H332.538V153.6ZM351.156 155.1C351.156 153.66 351.486 152.4 352.146 151.32C352.826 150.24 353.736 149.4 354.876 148.8C356.036 148.2 357.346 147.9 358.806 147.9C360.266 147.9 361.566 148.2 362.706 148.8C363.866 149.4 364.776 150.24 365.436 151.32C366.116 152.4 366.456 153.66 366.456 155.1C366.456 156.52 366.116 157.78 365.436 158.88C364.776 159.96 363.866 160.8 362.706 161.4C361.566 162 360.266 162.3 358.806 162.3C357.346 162.3 356.036 162 354.876 161.4C353.736 160.8 352.826 159.96 352.146 158.88C351.486 157.78 351.156 156.52 351.156 155.1ZM355.116 155.1C355.116 155.88 355.276 156.57 355.596 157.17C355.936 157.75 356.386 158.21 356.946 158.55C357.506 158.87 358.126 159.03 358.806 159.03C359.486 159.03 360.106 158.87 360.666 158.55C361.226 158.21 361.666 157.75 361.986 157.17C362.326 156.57 362.496 155.88 362.496 155.1C362.496 154.32 362.326 153.63 361.986 153.03C361.666 152.43 361.226 151.97 360.666 151.65C360.106 151.33 359.486 151.17 358.806 151.17C358.126 151.17 357.506 151.33 356.946 151.65C356.386 151.97 355.936 152.43 355.596 153.03C355.276 153.63 355.116 154.32 355.116 155.1ZM381.071 138.6H384.971V162H381.071V138.6ZM399.576 155.1C399.576 153.66 399.906 152.4 400.566 151.32C401.246 150.24 402.156 149.4 403.296 148.8C404.456 148.2 405.766 147.9 407.226 147.9C408.686 147.9 409.986 148.2 411.126 148.8C412.286 149.4 413.196 150.24 413.856 151.32C414.536 152.4 414.876 153.66 414.876 155.1C414.876 156.52 414.536 157.78 413.856 158.88C413.196 159.96 412.286 160.8 411.126 161.4C409.986 162 408.686 162.3 407.226 162.3C405.766 162.3 404.456 162 403.296 161.4C402.156 160.8 401.246 159.96 400.566 158.88C399.906 157.78 399.576 156.52 399.576 155.1ZM403.536 155.1C403.536 155.88 403.696 156.57 404.016 157.17C404.356 157.75 404.806 158.21 405.366 158.55C405.926 158.87 406.546 159.03 407.226 159.03C407.906 159.03 408.526 158.87 409.086 158.55C409.646 158.21 410.086 157.75 410.406 157.17C410.746 156.57 410.916 155.88 410.916 155.1C410.916 154.32 410.746 153.63 410.406 153.03C410.086 152.43 409.646 151.97 409.086 151.65C408.526 151.33 407.906 151.17 407.226 151.17C406.546 151.17 405.926 151.33 405.366 151.65C404.806 151.97 404.356 152.43 404.016 153.03C403.696 153.63 403.536 154.32 403.536 155.1ZM428.831 162.96H432.641C432.661 163.56 432.821 164.07 433.121 164.49C433.421 164.93 433.831 165.27 434.351 165.51C434.871 165.75 435.481 165.87 436.181 165.87C436.821 165.87 437.421 165.72 437.981 165.42C438.561 165.12 439.021 164.66 439.361 164.04C439.721 163.42 439.901 162.64 439.901 161.7V148.2H443.651V161.7C443.651 163.4 443.311 164.8 442.631 165.9C441.971 167 441.081 167.8 439.961 168.3C438.841 168.82 437.621 169.08 436.301 169.08C434.701 169.08 433.361 168.82 432.281 168.3C431.201 167.8 430.371 167.08 429.791 166.14C429.231 165.22 428.911 164.16 428.831 162.96ZM428.561 154.98C428.561 153.44 428.871 152.15 429.491 151.11C430.111 150.05 430.931 149.25 431.951 148.71C432.971 148.17 434.051 147.9 435.191 147.9C436.351 147.9 437.371 148.18 438.251 148.74C439.151 149.3 439.851 150.11 440.351 151.17C440.871 152.21 441.131 153.48 441.131 154.98C441.131 156.46 440.871 157.73 440.351 158.79C439.851 159.85 439.151 160.66 438.251 161.22C437.371 161.76 436.351 162.03 435.191 162.03C434.051 162.03 432.971 161.76 431.951 161.22C430.931 160.68 430.111 159.89 429.491 158.85C428.871 157.79 428.561 156.5 428.561 154.98ZM432.581 154.98C432.581 155.8 432.751 156.5 433.091 157.08C433.431 157.64 433.891 158.07 434.471 158.37C435.051 158.67 435.671 158.82 436.331 158.82C436.911 158.82 437.471 158.68 438.011 158.4C438.571 158.1 439.021 157.67 439.361 157.11C439.721 156.53 439.901 155.82 439.901 154.98C439.901 154.34 439.801 153.78 439.601 153.3C439.401 152.82 439.121 152.42 438.761 152.1C438.421 151.78 438.041 151.54 437.621 151.38C437.201 151.2 436.771 151.11 436.331 151.11C435.671 151.11 435.051 151.26 434.471 151.56C433.891 151.86 433.431 152.3 433.091 152.88C432.751 153.44 432.581 154.14 432.581 154.98ZM458.94 142.86C458.94 142.22 459.17 141.7 459.63 141.3C460.09 140.88 460.64 140.67 461.28 140.67C461.92 140.67 462.46 140.88 462.9 141.3C463.36 141.7 463.59 142.22 463.59 142.86C463.59 143.48 463.36 144 462.9 144.42C462.46 144.84 461.92 145.05 461.28 145.05C460.64 145.05 460.09 144.84 459.63 144.42C459.17 144 458.94 143.48 458.94 142.86ZM459.36 148.2H463.14V162H459.36V148.2ZM485.475 162.3C483.975 162.3 482.665 162 481.545 161.4C480.425 160.8 479.555 159.97 478.935 158.91C478.335 157.83 478.035 156.56 478.035 155.1C478.035 153.62 478.335 152.35 478.935 151.29C479.555 150.21 480.425 149.38 481.545 148.8C482.665 148.2 483.985 147.9 485.505 147.9C487.025 147.9 488.315 148.18 489.375 148.74C490.455 149.28 491.275 150.08 491.835 151.14C492.395 152.18 492.675 153.44 492.675 154.92C492.675 155.1 492.665 155.29 492.645 155.49C492.645 155.69 492.635 155.85 492.615 155.97H480.255V153.57H489.225L488.175 154.95C488.255 154.83 488.325 154.67 488.385 154.47C488.465 154.25 488.505 154.07 488.505 153.93C488.505 153.25 488.375 152.67 488.115 152.19C487.875 151.71 487.525 151.33 487.065 151.05C486.605 150.77 486.065 150.63 485.445 150.63C484.685 150.63 484.045 150.8 483.525 151.14C483.025 151.46 482.635 151.95 482.355 152.61C482.095 153.25 481.955 154.05 481.935 155.01C481.935 155.93 482.065 156.71 482.325 157.35C482.605 157.99 483.015 158.48 483.555 158.82C484.095 159.16 484.745 159.33 485.505 159.33C486.365 159.33 487.095 159.17 487.695 158.85C488.315 158.51 488.825 158.01 489.225 157.35L492.615 158.4C491.895 159.7 490.935 160.68 489.735 161.34C488.555 161.98 487.135 162.3 485.475 162.3ZM507.996 157.23C508.576 157.77 509.116 158.21 509.616 158.55C510.116 158.87 510.586 159.11 511.026 159.27C511.486 159.43 511.916 159.51 512.316 159.51C512.836 159.51 513.236 159.4 513.516 159.18C513.796 158.94 513.936 158.62 513.936 158.22C513.936 157.86 513.816 157.56 513.576 157.32C513.356 157.06 513.026 156.83 512.586 156.63C512.146 156.43 511.586 156.22 510.906 156C510.266 155.76 509.646 155.48 509.046 155.16C508.446 154.82 507.946 154.38 507.546 153.84C507.166 153.28 506.976 152.57 506.976 151.71C506.976 150.89 507.196 150.2 507.636 149.64C508.076 149.06 508.666 148.63 509.406 148.35C510.166 148.05 511.006 147.9 511.926 147.9C512.706 147.9 513.436 148 514.116 148.2C514.796 148.4 515.426 148.67 516.006 149.01C516.586 149.33 517.096 149.71 517.536 150.15L515.826 152.55C515.326 152.01 514.726 151.57 514.026 151.23C513.346 150.89 512.676 150.72 512.016 150.72C511.576 150.72 511.226 150.81 510.966 150.99C510.726 151.15 510.606 151.4 510.606 151.74C510.606 152.04 510.726 152.31 510.966 152.55C511.226 152.77 511.586 152.97 512.046 153.15C512.526 153.33 513.066 153.55 513.666 153.81C514.406 154.09 515.086 154.41 515.706 154.77C516.346 155.11 516.856 155.54 517.236 156.06C517.616 156.58 517.806 157.26 517.806 158.1C517.806 159.48 517.356 160.56 516.456 161.34C515.556 162.1 514.316 162.48 512.736 162.48C511.756 162.48 510.856 162.35 510.036 162.09C509.236 161.83 508.506 161.49 507.846 161.07C507.206 160.63 506.626 160.16 506.106 159.66L507.996 157.23Z" fill="#6C6E71"/>
<defs>
<linearGradient id="paint0_linear_5330_3319" x1="89.5" y1="5.70312" x2="89.5" y2="184.703" gradientUnits="userSpaceOnUse">
<stop stop-color="#47BDD9"/>
<stop offset="1" stop-color="#1C77BE"/>
</linearGradient>
<linearGradient id="paint1_linear_5330_3319" x1="13.8627" y1="130.469" x2="13.8627" y2="147.186" gradientUnits="userSpaceOnUse">
<stop stop-color="#48BED9"/>
<stop offset="1" stop-color="#1E7BBF"/>
</linearGradient>
<linearGradient id="paint2_linear_5330_3319" x1="164.32" y1="130.469" x2="164.32" y2="147.186" gradientUnits="userSpaceOnUse">
<stop stop-color="#48BED9"/>
<stop offset="1" stop-color="#1E7BBF"/>
</linearGradient>
<linearGradient id="paint3_linear_5330_3319" x1="13.8627" y1="43.625" x2="13.8627" y2="60.3425" gradientUnits="userSpaceOnUse">
<stop stop-color="#48BED9"/>
<stop offset="1" stop-color="#1E7BBF"/>
</linearGradient>
<linearGradient id="paint4_linear_5330_3319" x1="164.32" y1="43.625" x2="164.32" y2="60.3425" gradientUnits="userSpaceOnUse">
<stop stop-color="#48BED9"/>
<stop offset="1" stop-color="#1E7BBF"/>
</linearGradient>
<linearGradient id="paint5_linear_5330_3319" x1="89.7025" y1="173.695" x2="89.7025" y2="190.413" gradientUnits="userSpaceOnUse">
<stop stop-color="#48BED9"/>
<stop offset="1" stop-color="#1E7BBF"/>
</linearGradient>
<linearGradient id="paint6_linear_5330_3319" x1="89.7025" y1="0" x2="89.7025" y2="16.7175" gradientUnits="userSpaceOnUse">
<stop stop-color="#48BED9"/>
<stop offset="1" stop-color="#1E7BBF"/>
</linearGradient>
</defs>
</svg>
